<?xml version="1.0" encoding="utf-8"?>
<!-- Generator: Adobe Illustrator 26.0.2, SVG Export Plug-In . SVG Version: 6.00 Build 0)  -->
<svg version="1.1" id="Calque_1" xmlns="http://www.w3.org/2000/svg" xmlns:xlink="http://www.w3.org/1999/xlink" x="0px" y="0px"
	 viewBox="0 0 360.1 203.3" style="enable-background:new 0 0 360.1 203.3;" xml:space="preserve">
<style type="text/css">
	.st0{fill:#E64E0C;}
</style>
<g>
	<path class="st0" d="M52.5,92.8c1.5-6,7.2-22.7,15.1-27.1c2.1-1.2,4.1-1.4,6.3-0.7c3.3,1,5.6,4.1,6.1,7.9c0.6,5.5,1.9,16.1,4,26.2
		c0.9,4.5,3.8,7.6,7.8,8.6c0.2,0.1,0.4,0.1,0.6,0.1c4.4,0.8,9.3-1.1,12.6-5.1c3.5-4.2,6.5-9.2,8.9-14.8c2.1,7,6.4,16.5,14.1,20.6
		c5.4,2.9,11.7,2.8,18.7-0.4c0.5-0.3,9.3-5.4,15.3-15.3c0.4,2.1,1,4.2,1.8,6.2c3.3,8.1,8.3,10,12.1,10c1.1,0,2.1-0.1,2.9-0.3
		c7.7-1.8,12.6-10.1,15.6-18c0.6,3.9,1.7,7.6,3.3,10.9c1.4,2.8,4.1,4.7,7.3,5c3.2,0.4,6.2-0.9,8.3-3.3c2.7-3.3,5.2-7.4,7.5-12.4
		c1,9,4.2,20.3,13.9,26c6.3,3.7,14.6,2.8,20.2-2c7.6-6.5,14.3-18.2,20.2-34.8c0.4-1.3-0.2-2.7-1.5-3.1c-1.3-0.4-2.7,0.2-3.1,1.5
		c-6.9,19.6-14,28.6-18.8,32.7c-4,3.5-10,4.1-14.5,1.5c-9.2-5.4-11.4-17.6-11.7-25.9c4.9-6.1,9.8-12.8,14.6-19.8
		c5.7-8.5,10.3-17.1,13.5-25.6c3.9-10.1,5.7-19.2,5.5-26.9c-0.1-5-3.3-9.2-8.1-10.7C246,2.4,241,4.1,238,8.2
		c-22.7,31.9-19.9,69.7-19.3,75.1c-2.7,7.1-5.8,12.8-9.1,16.8c-1,1.2-2.4,1.8-4,1.6c-1.5-0.2-2.8-1-3.5-2.4
		c-3.1-6.1-3.7-14.5-3.9-21.9l0.3-2.5c0,0,0,0,0-0.1c0,0,0,0,0,0l3.9-28.4c0.2-1.3-0.8-2.6-2.1-2.8c-1.4-0.2-2.6,0.8-2.8,2.1
		l-1.6,12.1c-1.3-2.6-3.1-4.8-5.3-6.2c-3-1.9-6.4-2.2-9.8-1.1c-9.5,3.2-15.1,16.7-17.7,25.1c0,0,0,0,0,0.1l-0.1,0.5
		c-0.6,1.9-1,3.5-1.3,4.6c-3.5,14.8-17.3,22.9-17.3,22.9c-5.5,2.5-10.1,2.7-14.1,0.5c-7.1-3.8-10.7-13.9-12.4-20.2
		c2.1,0.8,4.2,1.2,6.4,1.2c1.3,0,2.7-0.1,4.1-0.4c5.1-1.1,9.7-4.2,13-8.8c5-7,6.6-13.2,4.9-18.5c-1.7-5.2-7.3-8.4-12.8-7.2
		c-18,3.9-21.2,25.8-21.5,28.4c-2.5,8.3-6.1,15.3-10.7,20.9c-2.2,2.6-5.2,3.9-7.9,3.4c-0.1,0-0.3,0-0.4-0.1
		c-2.2-0.5-3.7-2.3-4.2-4.9c-2.1-9.8-3.4-20.3-4-25.7c-0.6-5.7-4.3-10.4-9.5-12c-3.5-1.1-6.9-0.7-10.2,1.1
		c-4.8,2.7-8.7,8.4-11.5,14.1c0.4-14-1.3-22.9-5-26.4c-1.3-1.2-2.5-1.5-3.3-1.6c-2.7-0.7-5.4-0.2-7.9,1.5
		c-11,7.6-15.7,40.1-17.4,57.6c-9.7-28.8-5.8-49.7-3.8-57c0.3-1,0.8-2.3,1.4-4.4c0.5-1.8,1.3-3.2,1.8-4.3c0.8-2.1,2.5-3.8,4.5-4.9
		c4.8-2.5,5.7-7.2,5.9-9.3c0.1-1,0.2-2.1,0.4-3.1l2.9-18.9c0.1-0.8-0.4-1.6-1.2-1.8h0c-0.9-0.2-1.7,0.4-1.9,1.2l-3.9,19
		c-0.2,1-1.3,1.7-2.3,1.5c-1-0.2-1.6-1.3-1.4-2.3l4.5-19c0.2-0.9-0.3-1.7-1.2-1.9l0,0c-0.9-0.2-1.7,0.3-1.9,1.2l-4.5,18.9
		c-0.2,1-1.3,1.6-2.3,1.4l-0.1,0c-1-0.2-1.7-1.3-1.4-2.4l5.2-18.5c0.2-0.9-0.3-1.8-1.2-2L19.1,0c-0.8-0.2-1.6,0.3-1.9,1.1
		c-1.2,3.8-4.5,14.2-6.1,19.6c-2,6.7-2.1,9.2,1.7,13.2c1.8,1.9,1.8,6.7,0.5,11c0,0,0,0.1,0,0.1c0,0.1-0.1,0.1-0.1,0.2
		c-0.1,0.3-2,5.8-2.5,8.9c-1.4,8.9-5.5,31.1,8.8,64.4c0.4,0.9,1.3,1.5,2.3,1.5c0.1,0,0.3,0,0.4,0c1.1-0.2,2-1.1,2-2.3
		c1-15.5,5.7-57.3,16.2-64.6c1.3-0.9,2.6-1.1,4-0.7c0.2,0.1,0.5,0.1,0.7,0.1c0.6,0.3,6.2,4.7,2.6,39.5c-0.1,1.3,0.8,2.4,2,2.7
		C50.9,94.9,52.2,94.1,52.5,92.8z M242,11.1c1.5-2.1,3.5-2.8,5.4-2.8c0.7,0,1.4,0.1,2.1,0.3c2.2,0.7,4.6,2.6,4.7,6.1
		c0.2,7-1.6,15.4-5.2,25c-3.1,8.2-7.5,16.5-13,24.6c-4,5.9-8.1,11.6-12.3,16.9c-0.1,0-0.2-0.1-0.2-0.1
		C222.9,71.9,222.3,38.7,242,11.1z M167.5,78.2l0.3-1c3-9.9,8-19.7,14.6-22c2-0.7,3.9-0.5,5.6,0.6c2.5,1.6,4.3,4.8,4.8,8.4
		c0.3,2.6,0.4,6,0.5,9.5c0,0.9,0,1.9,0.1,2.8c-1.6,8.6-6.6,25.1-15.6,27.2c-2.6,0.6-6.4,0.6-9.3-6.7C166,91.4,165.7,84.7,167.5,78.2
		z M134.6,55.1c3-0.6,6.2,1.1,7.1,3.9c1.2,3.7-0.3,8.7-4.2,14.2c-2.6,3.6-6.1,6-10,6.9c-3.8,0.8-7.3,0.2-10.4-1.9
		C117.9,73.4,121.6,57.9,134.6,55.1z"/>
	<path class="st0" d="M17.5,138.5c2.6-0.5,4.8-0.1,6.7,1.3c5.5,4,6.7,14.4,6.7,14.5c0.2,1.3,1.4,2.3,2.7,2.2
		c1.3-0.2,2.3-1.4,2.2-2.7c-0.1-0.5-1.5-12.6-8.7-17.9c-3-2.2-6.6-3-10.5-2.2c-3.4,0.6-6.3,2.7-8,5.7c-1.7,2.9-2,6.4-0.8,9.5
		c1.7,4.6,5.4,9.6,11,14.8c10.9,10,12.2,18.9,12,23.3c-0.2,3.6-1.3,5.6-1.9,6c-1.1,0.8-4.8,2.6-9.2,1c-4.6-1.7-11-7.7-14.9-26.5
		c-0.3-1.3-1.6-2.2-2.9-1.9c-1.3,0.3-2.2,1.6-1.9,2.9c3.5,16.9,9.6,27,18,30.1c1.8,0.7,3.6,0.9,5.2,0.9c3.9,0,7.1-1.5,8.6-2.7
		c2.2-1.7,3.6-5.4,3.8-9.7c0.2-5.2-1.2-15.7-13.6-27.1c-5.1-4.7-8.3-9-9.7-12.8c-0.7-1.8-0.5-3.8,0.5-5.5
		C13.9,140.1,15.6,138.9,17.5,138.5z"/>
	<path class="st0" d="M348,161.3c-0.1-0.1-0.1-0.2-0.2-0.3c-5.5-5.7-12.5-15.6-10.9-19.8c0.8-2.1,4.1-2.7,6.7-2.8
		c1.7-0.1,3.3,0.3,4.6,1.2c2.6,1.7,6,5.4,6.9,13.3c0.2,1.3,1.4,2.3,2.7,2.1c1.3-0.2,2.3-1.4,2.1-2.7c-1.2-9.7-5.6-14.5-9.1-16.8
		c-2.2-1.4-4.8-2.1-7.6-2c-5.9,0.3-9.6,2.3-11,5.9c-3.3,8.5,8.9,21.9,11.8,24.9c6.2,8.7,9.8,15.9,10.8,21.2c0.3,2-0.3,4-1.6,5.6
		c-1.5,1.6-3.5,2.5-5.7,2.4c-17-0.8-17.9-23-17.9-23.9c0-1.3-1-2.3-2.3-2.4c-1.2-0.1-2.4,0.8-2.6,2.1c-2.8,17.7-11.3,24.4-12.3,25.1
		c-1.8,0.9-2.6,0.4-2.9,0.2c-5.8-4.1-4.8-32.8-2.3-52c0.2-1.3-0.7-2.5-2-2.7c-17.7-2.8-15.5-18.8-15.4-19.5c0.2-1.3-0.7-2.6-2-2.8
		c-1.3-0.2-2.6,0.7-2.8,2c-5.2,28.1-17.3,74.2-27.7,78.5c-1.1,0.5-2,0.3-3.1-0.4c-10-6.8-9.8-27.8-7.8-43.1c0.9-4,1.7-8.3,2.4-13
		c0.2-1.3-0.7-2.5-2-2.8c-1.3-0.2-2.5,0.6-2.8,1.8c-0.2,0.6-1.4,5.8-2.4,12.9c-4.9,21.6-12.8,31.2-17.5,35.2
		c-2.7,2.3-6.5,2.2-8.9-0.3c-6.2-6.6-7.4-19-7.2-29.2c1.3-8.8,1.5-15.8,1.5-16.5c0-1.3-0.9-2.4-2.2-2.5c-1.3-0.1-2.4,0.7-2.7,2
		c-0.1,0.6-1.4,7.6-1.6,16.5c-1.7,11.6-5.4,26.5-13.2,33.2c-3.2,2.7-6.7,3.8-10.7,3.3c-7.3-0.9-12.8-3.7-16.4-8.3
		c-3.9-5-4.8-11.2-4.9-15.2c0,0,0,0,0,0c8.5,1.4,14.1,0.2,17.2-1.1c1.6-0.7,3.1-1.8,4.2-3.3c4.8-6.1,7.4-11.6,7.9-16.4
		c0.3-3.4-1-6.6-3.5-8.9c-2.7-2.4-6.4-3.3-9.9-2.5c-17.3,4-20.2,23.3-20.6,27.1c-1-0.1-2-0.5-3-1.2c-5.5-4.2-8.3-17.2-9.1-22.8
		c0-0.5,0-0.9,0-1c0.1-1.4-1-2.5-2.4-2.5c-1.3-0.1-2.3,0.8-2.5,2c-0.2,0.4-0.3,0.8-0.2,1.2c0,0.1,0,0.2,0.1,0.4
		c-0.4,5.4-2.3,26.2-11.5,42.3c-2,3.5-3.5,4.3-4,4.2c-2.9-0.5-6.6-12.1-8.1-22c0,0,0,0,0,0s0,0,0,0l-4-23.7c-0.2-1.3-1.5-2.2-2.8-2
		c-1.3,0.2-2.2,1.5-2,2.8l3.9,23.1c-4.9,13.4-9.3,19-12.2,21.3c-1.1,0.9-2.4,1.2-3.8,1c-1.5-0.3-2.7-1.2-3.5-2.5
		c-10.7-19,0-50.4,0.1-50.7c0.4-1.3-0.2-2.7-1.5-3.1c-1.3-0.5-2.7,0.2-3.1,1.5c-0.1,0.4-1,2.9-2,6.7c-3-1.7-7.9-3.6-13.2-2.3
		c-6.1,1.5-11,6.8-14.6,15.6c-7.7,19.2-7.7,30.4,0.1,37.2c2.4,2.2,5.5,3.2,8.5,3.2c2.8,0,5.7-0.9,8-2.8c2.9-2.4,6.5-6.4,9.4-13.2
		c0.9,3.6,2.1,7,3.9,10.2c1.5,2.6,3.9,4.4,6.8,4.9c0.6,0.1,1.2,0.2,1.8,0.2c2.2,0,4.3-0.7,6-2.1c3.7-3,7.4-8.5,10.8-16.2
		c1.8,7.6,5.1,16.8,10.4,17.8c4.9,0.9,8.1-4.8,9.2-6.6c5.8-10.2,8.9-21.8,10.5-30.8c1.7,5,4.2,9.9,7.8,12.7c1.8,1.3,3.7,2,5.7,2.2
		c0.1,4.6,1.1,12,5.9,18.3c4.4,5.7,11,9.1,19.7,10.2c5.4,0.7,10.3-0.9,14.5-4.5c5.2-4.5,8.8-12,11.2-19.8c1.2,6.2,3.4,11.9,7.3,16
		c4.1,4.3,11,4.6,15.6,0.6c4.1-3.5,8.9-9.3,13.1-19c0.4,11.5,3,22.8,11,28.3c1.5,1,3.1,1.5,4.6,1.5c1,0,2.1-0.2,3.1-0.6
		c12.7-5.3,23.3-47.3,28.1-69.4c2.3,4.6,6.7,9.1,14.9,11c-1.4,11.7-4.9,47.6,4.6,54.3c1.6,1.1,4.3,2.1,8.3,0
		c0.4-0.2,7.3-4.9,11.7-17.4c2.8,8.3,8.9,16.7,20.5,17.3c3.6,0.2,7.1-1.3,9.6-4.1c2.4-2.7,3.4-6.2,2.8-9.7
		C358.7,178.5,354.8,170.7,348,161.3z M175.1,144.6c1.9-0.5,4,0.1,5.5,1.4c1.4,1.2,2.1,2.9,1.9,4.7c-0.4,3.8-2.7,8.5-6.9,13.9
		c-0.6,0.8-1.4,1.4-2.2,1.8c-2.1,0.9-6.7,2.1-14.5,0.8c-0.1,0-0.3,0-0.4,0c-0.1,0-0.1,0-0.2,0C158.9,163.1,161.8,147.6,175.1,144.6z
		 M78.8,167.6c-2.6,12.3-7.4,18.4-11,21.3c-3,2.4-7.3,2.3-10.3-0.3c-3.9-3.5-7.4-10.2,1.2-31.7c2.9-7.3,6.7-11.6,11.2-12.7
		c4.5-1.1,8.9,1.2,10.9,2.5C79.6,152.7,78.6,160,78.8,167.6z"/>
</g>
</svg>
